GRF
version=1
nRows=34
nColumns=19
inDegrees=no
endheader
time	ground_force_vx	ground_force_vy	ground_force_vz	ground_force_px	ground_force_py	ground_force_pz	ground_torque_x	ground_torque_y	ground_torque_z	1_ground_force_vx	1_ground_force_vy	1_ground_force_vz	1_ground_force_px	1_ground_force_py	1_ground_force_pz	1_ground_torque_x	1_ground_torque_y	1_ground_torque_z
      3.50000000	      0.06346540	      0.60168513	      0.15980717	      0.16406464	      0.00000000	      0.35260052	     -0.00000000	     -1.11338578	      0.00000000	     76.24473713	    706.42720095	     13.88834037	     -0.12550076	      0.00000000	      0.05266204	      0.00000000	      2.62021930	     -0.00000000
      3.50100000	      0.07190523	      0.68654022	      0.18147577	      0.16380015	      0.00000000	      0.35404655	     -0.00000000	     -1.11687197	      0.00000000	     76.26266858	    706.08646993	     13.91349163	     -0.12552882	      0.00000000	      0.05240668	      0.00000000	      2.60437470	     -0.00000000
      3.50200000	      0.08131252	      0.78205456	      0.20569439	      0.16353614	      0.00000000	      0.35546349	     -0.00000000	     -1.12018118	      0.00000000	     76.28092748	    705.73868113	     13.94032269	     -0.12555647	      0.00000000	      0.05215252	      0.00000000	      2.58880068	     -0.00000000
      3.50300000	      0.09177556	      0.88937459	      0.23270610	      0.16327272	      0.00000000	      0.35684849	     -0.00000000	     -1.12330123	      0.00000000	     76.29963887	    705.38372725	     13.96869511	     -0.12558371	      0.00000000	      0.05189954	      0.00000000	      2.57353175	     -0.00000000
      3.50400000	      0.10338760	      1.00974393	      0.26276928	      0.16300999	      0.00000000	      0.35819850	     -0.00000000	     -1.12621977	      0.00000000	     76.31891244	    705.02148634	     13.99846203	     -0.12561055	      0.00000000	      0.05164768	      0.00000000	      2.55860075	     -0.00000000
      3.50500000	      0.11624672	      1.14450835	      0.29615763	      0.16274810	      0.00000000	      0.35951027	     -0.00000000	     -1.12892436	      0.00000000	     76.33884125	    704.65182173	     14.02947052	     -0.12563697	      0.00000000	      0.05139690	      0.00000000	      2.54403881	     -0.00000000
      3.50600000	      0.13045562	      1.29512061	      0.33315988	      0.16248719	      0.00000000	      0.36078034	     -0.00000000	     -1.13140258	      0.00000000	     76.35950046	    704.27458213	     14.06156400	     -0.12566298	      0.00000000	      0.05114718	      0.00000000	      2.52987539	     -0.00000000
      3.50700000	      0.14612133	      1.46314510	      0.37407939	      0.16222741	      0.00000000	      0.36200505	     -0.00000000	     -1.13364211	      0.00000000	     76.38094641	    703.88960172	     14.09458453	     -0.12568857	      0.00000000	      0.05089847	      0.00000000	      2.51613830	     -0.00000000
      3.50800000	      0.16335485	      1.65026222	      0.41923356	      0.16196896	      0.00000000	      0.36318054	     -0.00000000	     -1.13563092	      0.00000000	     76.40321571	    703.49670040	     14.12837524	     -0.12571375	      0.00000000	      0.05065072	      0.00000000	      2.50285371	     -0.00000000
      3.50900000	      0.18227067	      1.85827240	      0.46895289	      0.16171203	      0.00000000	      0.36430273	     -0.00000000	     -1.13735732	      0.00000000	     76.42632462	    703.09568416	     14.16278257	     -0.12573849	      0.00000000	      0.05040390	      0.00000000	      2.49004620	     -0.00000000
      3.51000000	      0.20298622	      2.08909980	      0.52358000	      0.16145685	      0.00000000	      0.36536735	     -0.00000000	     -1.13881014	      0.00000000	     76.45026863	    702.68634548	     14.19765852	     -0.12576281	      0.00000000	      0.05015798	      0.00000000	      2.47773885	     -0.00000000
      3.51100000	      0.22562121	      2.34479548	      0.58346817	      0.16120367	      0.00000000	      0.36636995	     -0.00000000	     -1.13997889	      0.00000000	     76.47502217	    702.26846394	     14.23286271	     -0.12578668	      0.00000000	      0.04991290	      0.00000000	      2.46595326	     -0.00000000
      3.51200000	      0.25029684	      2.62754005	      0.64897975	      0.16095275	      0.00000000	      0.36730588	     -0.00000000	     -1.14085387	      0.00000000	     76.50053856	    701.84180687	     14.26826434	     -0.12581010	      0.00000000	      0.04966863	      0.00000000	      2.45470958	     -0.00000000
      3.51300000	      0.27713490	      2.93964570	      0.72048422	      0.16070440	      0.00000000	      0.36817033	     -0.00000000	     -1.14142638	      0.00000000	     76.52675019	    701.40613014	     14.30374402	     -0.12583305	      0.00000000	      0.04942512	      0.00000000	      2.44402664	     -0.00000000
      3.51400000	      0.30625681	      3.28355751	      0.79835595	      0.16045893	      0.00000000	      0.36895833	     -0.00000000	     -1.14168883	      0.00000000	     76.55356882	    700.96117910	     14.33919536	     -0.12585552	      0.00000000	      0.04918233	      0.00000000	      2.43392191	     -0.00000000
      3.51500000	      0.33778242	      3.66185403	      0.88297158	      0.16021670	      0.00000000	      0.36966477	     -0.00000000	     -1.14163494	      0.00000000	     76.58088612	    700.50668953	     14.37452635	     -0.12587749	      0.00000000	      0.04894022	      0.00000000	      2.42441158	     -0.00000000
      3.51600000	      0.37182882	      4.07724698	      0.97470720	      0.15997807	      0.00000000	      0.37028440	     -0.00000000	     -1.14125990	      0.00000000	     76.60857438	    700.04238875	     14.40966064	     -0.12589894	      0.00000000	      0.04869874	      0.00000000	      2.41551055	     -0.00000000
      3.51700000	      0.40850896	      4.53257999	      1.07393505	      0.15974346	      0.00000000	      0.37081189	     -0.00000000	     -1.14056048	      0.00000000	     76.63648734	    699.56799677	     14.44453842	     -0.12591985	      0.00000000	      0.04845784	      0.00000000	      2.40723247	     -0.00000000
      3.51800000	      0.44793014	      5.03082640	      1.18101996	      0.15951329	      0.00000000	      0.37124181	     -0.00000000	     -1.13953525	      0.00000000	     76.66446122	    699.08322752	     14.47911724	     -0.12594019	      0.00000000	      0.04821746	      0.00000000	      2.39958968	     -0.00000000
      3.51900000	      0.49019239	      5.57508596	      1.29631548	      0.15928802	      0.00000000	      0.37156870	     -0.00000000	     -1.13818467	      0.00000000	     76.69231589	    698.58779008	     14.51337242	     -0.12595993	      0.00000000	      0.04797755	      0.00000000	      2.39259323	     -0.00000000
      3.52000000	      0.53538684	      6.16858037	      1.42015958	      0.15906814	      0.00000000	      0.37178707	     -0.00000000	     -1.13651124	      0.00000000	     76.71985607	    698.08138996	     14.54729737	     -0.12597905	      0.00000000	      0.04773806	      0.00000000	      2.38625277	     -0.00000000
      3.52100000	      0.58359379	      6.81464767	      1.55287015	      0.15885417	      0.00000000	      0.37189144	     -0.00000000	     -1.13451961	      0.00000000	     76.74687276	    697.56373034	     14.58090357	     -0.12599752	      0.00000000	      0.04749892	      0.00000000	      2.38057652	     -0.00000000
      3.52200000	      0.63488088	      7.51673539	      1.69474012	      0.15864664	      0.00000000	      0.37187637	     -0.00000000	     -1.13221665	      0.00000000	     76.77314462	    697.03451331	     14.61422032	     -0.12601531	      0.00000000	      0.04726006	      0.00000000	      2.37557117	     -0.00000000
      3.52300000	      0.68930107	      8.27839238	      1.84603235	      0.15844614	      0.00000000	      0.37173651	     -0.00000000	     -1.12961156	      0.00000000	     76.79843951	    696.49344100	     14.64729432	     -0.12603239	      0.00000000	      0.04702142	      0.00000000	      2.37124176	     -0.00000000
      3.52400000	      0.74689060	      9.10325937	      2.00697420	      0.15825324	      0.00000000	      0.37146663	     -0.00000000	     -1.12671588	      0.00000000	     76.82251601	    695.94021670	     14.68018895	     -0.12604872	      0.00000000	      0.04678291	      0.00000000	      2.36759155	     -0.00000000
      3.52500000	      0.80766686	      9.99505817	      2.17775202	      0.15806857	      0.00000000	      0.37106165	     -0.00000000	     -1.12354353	      0.00000000	     76.84512494	    695.37454580	     14.71298341	     -0.12606428	      0.00000000	      0.04654446	      0.00000000	      2.36462191	     -0.00000000
      3.52600000	      0.87162625	     10.95757957	      2.35850531	      0.15789275	      0.00000000	      0.37051670	     -0.00000000	     -1.12011077	      0.00000000	     76.86601096	    694.79613661	     14.74577164	     -0.12607903	      0.00000000	      0.04630599	      0.00000000	      2.36233214	     -0.00000000
      3.52700000	      0.93874201	     11.99466987	      2.54932087	      0.15772645	      0.00000000	      0.36982716	     -0.00000000	     -1.11643617	      0.00000000	     76.88491404	    694.20470109	     14.77866105	     -0.12609295	      0.00000000	      0.04606740	      0.00000000	      2.36071930	     -0.00000000
      3.52800000	      1.00896214	     13.11021612	      2.75022677	      0.15757033	      0.00000000	      0.36898870	     -0.00000000	     -1.11254052	      0.00000000	     76.90157095	    693.59995529	     14.81177112	     -0.12610600	      0.00000000	      0.04582860	      0.00000000	      2.35977810	     -0.00000000
      3.52900000	      1.08220716	     14.30813007	      2.96118644	      0.15742508	      0.00000000	      0.36799731	     -0.00000000	     -1.10844669	      0.00000000	     76.91571664	    692.98161970	     14.84523183	     -0.12611817	      0.00000000	      0.04558950	      0.00000000	      2.35950068	     -0.00000000
      3.53000000	      1.15836817	     15.59233094	      3.18209262	      0.15729139	      0.00000000	      0.36684938	     -0.00000000	     -1.10417950	      0.00000000	     76.92708564	    692.34941934	     14.87918207	     -0.12612942	      0.00000000	      0.04534999	      0.00000000	      2.35987649	     -0.00000000
      3.53100000	      1.23730477	     16.96672695	      3.41276160	      0.15716994	      0.00000000	      0.36554171	     -0.00000000	     -1.09976549	      0.00000000	     76.93541318	    691.70308363	     14.91376780	     -0.12613974	      0.00000000	      0.04510998	      0.00000000	      2.36089211	     -0.00000000
      3.53200000	      1.31884326	     18.43519584	      3.65292751	      0.15706145	      0.00000000	      0.36407156	     -0.00000000	     -1.09523267	      0.00000000	     76.94043640	    691.04234608	     14.94914033	     -0.12614910	      0.00000000	      0.04486936	      0.00000000	      2.36253116	     -0.00000000
      3.53300000	      1.40277487	     20.00156438	      3.90223693	      0.15696660	      0.00000000	      0.36243671	     -0.00000000	     -1.09061027	      0.00000000	     76.94189528	    690.36694368	     14.98545436	     -0.12615749	      0.00000000	      0.04462803	      0.00000000	      2.36477412	     -0.00000000
